<?xml version="1.0" encoding="UTF-8"?>
<!DOCTYPE svg PUBLIC "-//W3C//DTD SVG 1.1//EN" "http://www.w3.org/Graphics/SVG/1.1/DTD/svg11.dtd">
<svg xmlns="http://www.w3.org/2000/svg" version="1.1" width="210px" height="630px" style="shape-rendering:geometricPrecision; text-rendering:geometricPrecision; image-rendering:optimizeQuality; fill-rule:evenodd; clip-rule:evenodd" xmlns:xlink="http://www.w3.org/1999/xlink">
<g><path style="opacity:0.897" fill="#fefffe" d="M 27.5,14.5 C 38.6691,12.7265 44.0024,17.3932 43.5,28.5C 46.766,28.4326 48.266,30.0992 48,33.5C 48.6406,39.5283 48.4739,45.5283 47.5,51.5C 37.7562,52.9157 28.0895,52.749 18.5,51C 17.3555,44.2476 17.1888,37.4143 18,30.5C 19.1096,28.9632 20.6096,28.2965 22.5,28.5C 22.1977,23.07 23.8643,18.4033 27.5,14.5 Z M 30.5,19.5 C 35.9729,19.9743 38.6396,22.9743 38.5,28.5C 34.8333,28.5 31.1667,28.5 27.5,28.5C 27.6469,25.2084 28.6469,22.2084 30.5,19.5 Z"/></g>
<g><path style="opacity:0.563" fill="#fefffe" d="M 99.5,429.5 C 107.05,428.543 114.05,430.043 120.5,434C 124.554,438.69 126.554,444.19 126.5,450.5C 124.448,456.596 123.115,462.929 122.5,469.5C 118.363,471.137 115.363,473.97 113.5,478C 107.833,478.667 102.167,478.667 96.5,478C 95.1279,476.758 94.1279,475.258 93.5,473.5C 87.1678,470.577 84.6678,465.577 86,458.5C 80.6899,444.446 85.1899,434.779 99.5,429.5 Z M 98.5,437.5 C 104.434,436.889 110.1,437.722 115.5,440C 118.865,444.819 119.365,449.986 117,455.5C 114.482,450.248 110.815,449.248 106,452.5C 105.257,454.441 105.424,456.274 106.5,458C 103.194,458.931 102.527,457.931 104.5,455C 103.472,450.794 100.805,449.461 96.5,451C 94.741,452.008 93.5743,453.508 93,455.5C 89.7076,447.772 91.541,441.772 98.5,437.5 Z M 98.5,454.5 C 99.7125,455.497 99.5458,456.497 98,457.5C 97.5304,456.423 97.6971,455.423 98.5,454.5 Z M 111.5,456.5 C 110.711,456.217 110.044,455.717 109.5,455C 110.816,454.472 111.483,454.972 111.5,456.5 Z M 93.5,462.5 C 95.1347,463.815 96.8014,463.815 98.5,462.5C 99.6309,464.074 99.7975,465.741 99,467.5C 97.8289,466.107 96.3289,465.273 94.5,465C 93.7476,464.329 93.4142,463.496 93.5,462.5 Z M 104.5,462.5 C 107.3,464.476 106.967,465.309 103.5,465C 104.252,464.329 104.586,463.496 104.5,462.5 Z M 110.5,462.5 C 118.32,462.203 118.486,463.869 111,467.5C 110.506,465.866 110.34,464.199 110.5,462.5 Z"/></g>
<g><path style="opacity:0.582" fill="#fefffe" d="M 27.5,430.5 C 28.552,430.351 29.552,430.517 30.5,431C 31.6508,433.119 33.1508,434.953 35,436.5C 38.4079,434.777 40.7413,435.777 42,439.5C 42.3333,439.167 42.6667,438.833 43,438.5C 44.0195,439.687 45.1861,440.687 46.5,441.5C 50.7992,440.12 52.7992,441.786 52.5,446.5C 57.4819,447.978 57.8152,450.478 53.5,454C 57.4527,456.644 57.286,459.144 53,461.5C 51.6667,460.833 50.3333,460.167 49,459.5C 48.205,461.901 47.0383,464.068 45.5,466C 42.7152,466.658 40.0486,467.491 37.5,468.5C 37.071,473.466 34.9043,474.466 31,471.5C 27.3855,475.309 24.5522,474.642 22.5,469.5C 19.8155,470.666 17.8155,469.833 16.5,467C 17.2551,464.867 18.5884,463.2 20.5,462C 18.9684,459.966 17.6351,457.799 16.5,455.5C 16.9767,454.522 17.6433,453.689 18.5,453C 17.1667,451.333 17.1667,449.667 18.5,448C 17.1007,446.938 16.1007,445.605 15.5,444C 17.6904,441.403 19.0237,438.403 19.5,435C 21.4727,434.505 23.4727,434.338 25.5,434.5C 25.5271,432.801 26.1938,431.467 27.5,430.5 Z"/></g>
<g><path style="opacity:0.617" fill="#fefffe" d="M 172.5,430.5 C 188.113,430.61 194.28,438.277 191,453.5C 188.294,460.422 184.46,466.589 179.5,472C 177.5,472.667 175.5,472.667 173.5,472C 166.638,464.443 162.305,455.609 160.5,445.5C 161.596,438.081 165.596,433.081 172.5,430.5 Z M 183.5,443.5 C 180.487,439.66 176.821,438.827 172.5,441C 170.396,443.042 169.229,445.542 169,448.5C 168.329,440.841 171.829,437.674 179.5,439C 181.751,439.748 183.084,441.248 183.5,443.5 Z M 170.5,451.5 C 174.5,454.167 178.5,454.167 182.5,451.5C 181.287,455.593 179.287,459.259 176.5,462.5C 173.713,459.259 171.713,455.593 170.5,451.5 Z"/></g>
</svg>
